<?xml version="1.0" standalone="no"?> <!DOCTYPE svg PUBLIC "-//W3C//DTD SVG 1.0//EN" "http://www.w3.org/TR/2001/REC-SVG-20010904/DTD/svg10.dtd" > <svg xmlns="http://www.w3.org/2000/svg" width="100%" height="100%">
<defs >
<font horiz-adv-x="1050" ><font-face
    font-family="Environment Regular"
    units-per-em="2048"
    panose-1="2 0 6 0 0 0 0 0 0 0"
    ascent="2148"
    descent="-472"
    alphabetic="0" />
<missing-glyph horiz-adv-x="1024" d="M100 0V1434H924V0H100ZM150 50H874V1384H150V50ZM325 1148Q356 1176 383 1191Q436 1221 495 1221Q587 1221 643 1174T699 1046Q699 997 676 948T589 818Q526 738 490 686T454 587Q454 549 478 454H446Q411 551 411 602Q411
678 492 820T574 1037Q574 1094 541 1127T450 1160Q412 1160 381 1143Q355 1128 325 1103V1148ZM389 334L446 392Q457 402 466 402Q476 402 488 391L544 331Q553 320 553 311Q553 300 543 289L487 227Q473 213 466 213Q455 213 446 223L385 294Q378 303 378 312Q378
322 389 334Z" />
<glyph unicode=" " glyph-name="space" horiz-adv-x="508" />
<glyph unicode="!" glyph-name="exclam" horiz-adv-x="266" d="M104 280Q87 281 76 291T64 319V1444Q64 1460 76 1471T105 1482Q122 1482 134 1471T146 1444L145 319Q145 302 133 291T104 280ZM105 6Q73 6 51 30T28 90Q28 124 50 149T105 174Q138 174 160 149T183
90Q183 55 161 31T105 6Z" />
<glyph unicode="&quot;" glyph-name="quotedbl" horiz-adv-x="442" d="M82 1168Q86 1178 88 1189Q103 1228 110 1251Q119 1281 119 1300V1306H117Q66 1314 49 1369Q47 1379 47 1389Q47 1399 49 1408Q60 1458 108 1475Q119 1478 129 1478L139 1477Q190 1469 207
1414L208 1398Q208 1335 99 1191L82 1168ZM271 1207L276 1225Q290 1259 296 1279T304 1307T305 1322Q305 1325 305 1326T303 1328Q256 1335 240 1383Q238 1392 238 1401Q238 1409 240 1417Q250 1461 295 1476Q303 1478 312 1478L323 1477Q371 1470 387 1422Q388
1416 388 1409Q388 1400 386 1390Q378 1350 324 1276L271 1207Z" />
<glyph unicode="#" glyph-name="numbersign" horiz-adv-x="1002" d="M589 2L583 3Q568 5 558 16T548 43Q548 49 611 508H301L225 37Q222 22 211 12T185 2L178 3Q163 6 154 17T144 44Q144 50 219 508H70Q54 508 42 520T30 549Q30 566 42 578T70 590H232L277 864H144Q127
864 115 876T103 905Q103 922 115 934T144 946H290L373 1454Q375 1469 387 1478T414 1488Q433 1487 443 1475T454 1448L373 946H670L739 1453Q741 1468 752 1478T779 1488Q798 1487 809 1475T820 1447Q820 1442 752 946H861Q878 946 890 934T902 905Q902 889 890
877T861 864H741L704 590H828Q845 590 857 578T869 549Q869 532 857 520T828 508H693L629 38Q626 22 615 12T589 2ZM622 590L659 864H359L315 590H622Z" />
<glyph unicode="$" glyph-name="dollar" horiz-adv-x="701" d="M316 2Q299 2 287 15T275 46V266Q167 282 99 363T30 559Q30 576 41 588T68 600Q84 600 95 588T106 559Q106 477 152 420T275 347V741Q182 750 121 800Q37 871 37 991Q37 1132 118 1215Q179 1274 275
1285V1445Q275 1463 287 1475T316 1488Q333 1488 344 1476T356 1445V1285Q455 1274 517 1209Q590 1128 590 996Q590 974 580 963T552 951Q536 951 525 962T514 990Q514 1096 462 1152Q423 1194 356 1204V817Q449 807 514 754Q601 679 601 559Q601 431 537 355T356
265V46Q356 28 345 15T316 2ZM356 346Q399 351 437 372T500 438T525 559Q525 617 501 653T438 710T356 736V346ZM275 822V1204Q237 1199 201 1179T139 1114T114 991Q114 928 140 893T203 842T275 822Z" />
<glyph unicode="%" glyph-name="percent" horiz-adv-x="736" d="M73 9Q67 9 59 11Q32 24 32 49Q32 57 35 64L546 1455Q559 1482 584 1482Q591 1482 598 1479Q625 1466 625 1441Q625 1434 623 1427L111 35Q99 9 73 9ZM484 21Q421 21 377 71T332 193Q332 264 376
314T484 365Q547 365 591 315T636 193Q636 122 592 72T484 21ZM484 103Q513 103 534 129T555 193Q555 230 534 256T484 283Q455 283 434 257T413 193Q413 156 434 130T484 103ZM182 1138Q119 1138 75 1188T30 1310Q30 1381 74 1431T182 1482Q245 1482 290 1432T335
1310Q335 1239 290 1189T182 1138ZM182 1220Q212 1220 232 1246T253 1310Q253 1347 233 1373T182 1400Q153 1400 132 1374T111 1310Q111 1273 132 1247T182 1220Z" />
<glyph unicode="&amp;" glyph-name="ampersand" horiz-adv-x="1314" d="M1163 -26Q1144 -26 1127 -12L1113 2Q1058 51 905 206Q731 16 433 11Q307 11 208 78T60 265Q30 343 30 421Q30 507 64 587T165 730Q247 803 343 858Q231 1017 184 1149Q172 1184 172 1223Q172
1314 234 1405Q287 1478 368 1517T545 1557Q596 1557 654 1529T760 1455Q843 1368 843 1263Q840 1147 791 1067T663 930T495 825Q690 575 898 361Q969 478 992 573T1016 686V687Q1019 707 1033 719T1067 732Q1090 732 1106 715Q1119 700 1119 676V673Q1118 648
1087 534T970 287Q1152 104 1193 67Q1214 51 1214 26Q1214 7 1200 -10Q1183 -26 1163 -26ZM433 114Q688 118 834 279Q613 503 404 774Q310 721 236 655Q133 557 133 424Q133 358 156 303Q192 215 265 165T433 114ZM433 908Q560 974 647 1053T740 1264V1267Q740
1305 723 1334T687 1382Q650 1417 611 1435T545 1454Q403 1454 318 1344Q275 1282 275 1223Q275 1201 282 1182Q325 1060 433 908Z" />
<glyph unicode="&apos;" glyph-name="quotesingle" horiz-adv-x="268" d="M82 1168Q86 1178 88 1189Q103 1228 110 1251Q119 1281 119 1300V1306H117Q66 1314 49 1369Q47 1379 47 1389Q47 1399 49 1408Q60 1458 108 1475Q119 1478 129 1478L139 1477Q190 1469
207 1414L208 1398Q208 1335 99 1191L82 1168Z" />
<glyph unicode="(" glyph-name="parenleft" horiz-adv-x="506" d="M360 2Q345 2 332 14Q186 153 108 334T30 717V724Q37 1142 335 1469Q349 1482 365 1482Q380 1482 393 1470T406 1440Q406 1425 395 1412Q117 1110 111 724V720Q111 534 182 368T388 73Q401 60
401 43Q401 28 390 15Q377 2 360 2Z" />
<glyph unicode=")" glyph-name="parenright" horiz-adv-x="507" d="M76 2Q60 2 46 15Q35 28 35 43Q35 60 48 73Q183 201 254 367T325 720V724Q319 1110 41 1412Q30 1425 30 1440Q30 1457 43 1469T71 1482Q87 1482 101 1469Q400 1142 407 724V720Q407 517 329 336T104
14Q91 2 76 2Z" />
<glyph unicode="*" glyph-name="asterisk" horiz-adv-x="633" d="M411 1206Q393 1206 378 1223L281 1357L184 1223Q171 1206 151 1206Q139 1206 127 1214Q110 1228 110 1247Q110 1260 118 1271L215 1405L58 1456Q30 1469 30 1495Q30 1501 32 1507Q45 1535 70 1535Q77
1535 240 1482V1648Q240 1665 252 1677T281 1689Q298 1689 310 1677T322 1648V1482L479 1533Q486 1535 492 1535Q518 1535 531 1507Q533 1501 533 1495Q533 1469 505 1456L347 1405L444 1271Q452 1259 452 1247Q452 1228 435 1214Q425 1206 411 1206Z" />
<glyph unicode="+" glyph-name="plus" horiz-adv-x="939" d="M434 338Q419 338 408 349T397 375V705H67Q52 705 41 716T30 742Q30 757 41 768T67 779H397V1109Q397 1124 408 1135T434 1146Q450 1146 460 1135T471 1109V779H802Q817 779 828 768T839 742Q839 727
828 716T802 705H471V375Q471 360 461 349T434 338Z" />
<glyph unicode="," glyph-name="comma" horiz-adv-x="245" d="M84 -98H78Q62 -98 54 -94L47 -92H49Q50 -92 55 -91T68 -87Q83 -83 101 -69T121 -41Q126 -31 126 -13Q125 -11 125 -5L95 0Q73 4 61 23Q51 38 51 58Q51 89 74 108Q88 121 107 121L145 115Q164 112
176 98T190 63V48Q190 29 186 1L179 -23Q165 -66 137 -82L134 -85Q108 -98 84 -98Z" />
<glyph unicode="-" glyph-name="hyphen" horiz-adv-x="605" d="M476 570H59Q47 570 39 582T30 611Q30 628 38 640T59 652H476Q488 652 496 640T505 611Q505 594 497 582T476 570Z" />
<glyph unicode="." glyph-name="period" horiz-adv-x="245" d="M125 -4Q93 -4 71 20T48 80Q48 114 70 139T125 164Q158 164 180 139T203 80Q203 45 181 21T125 -4Z" />
<glyph unicode="/" glyph-name="slash" horiz-adv-x="760" d="M73 -87Q66 -87 58 -84Q30 -70 30 -42Q30 -33 33 -25L576 1541Q590 1571 616 1571Q624 1571 632 1568Q660 1553 660 1524Q660 1517 658 1509L114 -57Q100 -87 73 -87Z" />
<glyph unicode="0" glyph-name="zero" horiz-adv-x="820" d="M375 -3Q233 -3 132 98T30 342V1113Q30 1256 131 1357T375 1458Q518 1458 619 1357T720 1113V342Q720 200 619 99T375 -3ZM375 101Q475 101 546 171T617 342V1113Q617 1213 546 1284T375 1355Q275 1355
205 1284T134 1113V342Q134 242 204 172T375 101Z" />
<glyph unicode="1" glyph-name="one" horiz-adv-x="328" d="M228 -3H125V1236L30 1237L228 1463V-3Z" />
<glyph unicode="2" glyph-name="two" horiz-adv-x="873" d="M722 -3H30L94 80Q157 161 251 296T442 587T604 883T670 1113Q670 1213 599 1284T428 1355Q328 1355 258 1284T187 1113H83Q83 1256 184 1357T428 1458Q571 1458 672 1357T773 1113Q773 941 563 588Q415
338 238 101H722V-3Z" />
<glyph unicode="3" glyph-name="three" horiz-adv-x="819" d="M375 -3Q232 -3 131 97T30 338H133Q133 239 204 169T375 99Q475 99 545 169T616 338V439Q616 535 551 602T386 677L375 676V779H386Q485 786 550 853T616 1017V1118Q616 1217 546 1286T375 1356Q275
1356 204 1287T133 1118H30Q30 1259 131 1358T375 1458Q517 1458 618 1359T719 1118V1017Q719 925 675 850T556 728Q631 682 675 606T719 439V338Q719 197 618 97T375 -3Z" />
<glyph unicode="4" glyph-name="four" horiz-adv-x="833" d="M733 -3H630V484H30L257 1458H363L160 586H630V1458H733V-3Z" />
<glyph unicode="5" glyph-name="five" horiz-adv-x="827" d="M382 -3Q239 -3 138 98T37 342V394H140V342Q140 242 211 172T382 101Q482 101 553 171T624 342V635Q624 735 553 805T382 876H30L103 1458H689V1355H194L147 980H382Q525 980 626 879T727 635V342Q727
200 626 99T382 -3Z" />
<glyph unicode="6" glyph-name="six" horiz-adv-x="820" d="M375 -3Q246 -3 152 79T35 289L30 342V1111Q30 1254 131 1355T375 1456Q517 1456 618 1355T720 1111V1060H617V1111Q617 1211 546 1282T375 1353Q275 1353 204 1282T133 1111V791Q180 838 242 864T375
891Q517 891 618 790T720 546V342Q720 200 619 99T375 -3ZM375 101Q475 101 546 171T617 342V546Q617 646 546 717T375 788Q275 788 204 717T133 546V342Q133 242 204 172T375 101Z" />
<glyph unicode="7" glyph-name="seven" horiz-adv-x="862" d="M142 -3H30L605 1351H45V1456H762L142 -3Z" />
<glyph unicode="8" glyph-name="eight" horiz-adv-x="820" d="M375 -3Q232 -3 131 98T30 342V435Q30 527 75 604T194 728Q120 774 75 851T30 1021V1113Q30 1256 131 1357T375 1458Q518 1458 619 1357T720 1113V1021Q720 928 675 851T555 728Q630 681 675 604T720
435V342Q720 200 619 99T375 -3ZM375 101Q475 101 546 171T617 342V435Q617 534 546 605T375 676Q275 676 204 605T133 435V342Q133 242 204 172T375 101ZM375 779Q475 779 546 850T617 1021V1113Q617 1213 546 1284T375 1355Q275 1355 204 1284T133 1113V1021Q133
921 204 850T375 779Z" />
<glyph unicode="9" glyph-name="nine" horiz-adv-x="820" d="M375 -3Q232 -3 131 98T30 342V394H133V342Q133 242 204 172T375 101Q475 101 546 171T617 342V662Q570 616 508 590T375 563Q232 563 131 664T30 908V1111Q30 1254 131 1355T375 1456Q504 1456 598
1374T715 1165H720V342Q720 200 619 99T375 -3ZM375 666Q475 666 546 737T617 908V1111Q617 1211 546 1282T375 1353Q275 1353 204 1282T133 1111V908Q133 808 204 737T375 666Z" />
<glyph unicode=":" glyph-name="colon" horiz-adv-x="266" d="M125 -3Q93 -3 71 21T48 81Q48 115 70 140T125 165Q158 165 180 140T203 81Q203 46 181 22T125 -3ZM125 546Q93 546 71 570T48 630Q48 664 70 689T125 714Q158 714 180 689T203 630Q203 595 181 571T125 546Z" />
<glyph unicode=";" glyph-name="semicolon" horiz-adv-x="266" d="M84 -98H78Q62 -98 54 -94L47 -92H49Q50 -92 55 -91T68 -87Q83 -83 101 -69T121 -41Q126 -31 126 -13Q125 -11 125 -5L95 0Q73 4 61 23Q51 38 51 58Q51 89 74 108Q88 121 107 121L145 115Q164
112 176 98T190 63V48Q190 29 186 1L179 -23Q165 -66 137 -82L134 -85Q108 -98 84 -98ZM105 546Q73 546 51 570T28 630Q28 664 50 689T105 714Q138 714 160 689T183 630Q183 595 161 571T105 546Z" />
<glyph unicode="&lt;" glyph-name="less" horiz-adv-x="1030" d="M895 274Q890 274 55 569Q44 573 37 584T30 608Q30 622 37 632T55 647Q890 942 895 942Q918 942 929 913L930 902Q930 875 905 862L186 608L905 353Q930 341 930 315Q930 309 928 302Q918 274 895 274Z" />
<glyph unicode="=" glyph-name="equal" horiz-adv-x="605" d="M476 691H59Q47 691 39 703T30 731Q30 748 38 760T59 772H476Q488 772 496 760T505 731Q505 715 497 703T476 691ZM476 451H59Q47 451 39 463T30 492Q30 508 38 520T59 532H476Q488 532 496 520T505
492Q505 475 497 463T476 451Z" />
<glyph unicode="&gt;" glyph-name="greater" horiz-adv-x="1030" d="M65 274Q43 274 32 302Q30 308 30 314Q30 328 37 338T55 353L774 608L55 862Q30 874 30 900Q30 906 32 913Q42 942 65 942Q70 942 905 647Q930 635 930 608Q930 581 905 569Q70 274 65 274Z" />
<glyph unicode="?" glyph-name="question" horiz-adv-x="800" d="M365 266Q349 266 337 278T324 308V409Q324 547 356 630T434 763T523 846T592 911T618 998L619 1052Q619 1167 593 1244Q542 1395 366 1395Q194 1395 139 1231Q111 1149 111 1057L112 1035L31 1029Q30
1033 30 1060Q30 1262 132 1382Q221 1479 366 1479Q515 1479 600 1390Q645 1341 666 1280T694 1159T700 1052V998Q700 941 682 902T635 834T574 780Q532 748 494 706T431 595T406 409V308Q406 290 394 278T365 266ZM363 -7Q331 -7 309 17T286 77Q286 111 308 136T363
161Q396 161 418 136T441 77Q441 42 419 18T363 -7Z" />
<glyph unicode="@" glyph-name="at" horiz-adv-x="1188" d="M655 -6H462Q343 -6 245 54T89 217T30 444V990Q30 1125 93 1236T263 1413T499 1479Q629 1479 735 1413T905 1236T969 990V652Q969 591 928 548T827 504Q779 504 742 534T691 611Q652 562 596 533T475
504Q359 504 277 589T195 795Q195 915 277 1000T475 1086Q538 1086 592 1059T685 986V1088H754V652Q754 621 775 599T827 576Q857 576 878 598T900 652V990Q900 1105 846 1200T701 1351T499 1407Q389 1407 298 1351T153 1200T99 990V444Q99 340 148 254T279 117T462
65H655Q755 65 838 116T970 254T1019 444H1088Q1088 320 1030 218T873 55T655 -6ZM475 576Q562 576 623 640T685 795Q685 886 624 950T475 1014Q387 1014 326 950T264 795Q264 704 325 640T475 576Z" />
<glyph unicode="A" glyph-name="A" horiz-adv-x="1482" d="M1382 3H1268L1084 407H328L143 3H30L707 1484L1382 3ZM1037 510L706 1236L375 510H1037Z" />
<glyph unicode="B" glyph-name="B" horiz-adv-x="1324" d="M821 3H30V1484H674Q785 1484 876 1431T1022 1287T1076 1088Q1076 995 1037 916T930 782Q1059 744 1141 640T1224 400Q1224 290 1170 200T1024 57T821 3ZM821 106Q945 106 1033 192T1121 400Q1121 521
1033 607T821 693L704 692L674 691L133 692V106H821ZM674 794Q798 794 885 880T973 1088Q973 1209 885 1295T674 1381H133V795L674 794Z" />
<glyph unicode="C" glyph-name="C" horiz-adv-x="1427" d="M744 2Q547 2 385 99T127 359T30 719V766Q30 963 126 1126T385 1385T744 1482Q904 1482 1047 1415T1294 1222L1327 1183L1247 1117L1214 1157Q1126 1263 1004 1321T744 1379Q575 1379 437 1296T216 1074T133
766V719Q133 550 215 411T436 189T744 106Q881 106 1003 163T1214 328L1247 368L1327 302L1294 262Q1190 138 1047 70T744 2Z" />
<glyph unicode="D" glyph-name="D" horiz-adv-x="1400" d="M559 3H30V1483H559Q764 1483 932 1383T1200 1115T1300 743Q1300 539 1200 371T932 103T559 3ZM559 106Q735 106 880 192T1111 422T1197 743Q1197 919 1111 1063T880 1294T559 1380H133V106H559Z" />
<glyph unicode="E" glyph-name="E" horiz-adv-x="1181" d="M1081 4H30V1463H1081V1361H134V787H968V685H134V106H1081V4Z" />
<glyph unicode="F" glyph-name="F" horiz-adv-x="1132" d="M133 3H30V1482H1032V1379H133V813H945V710H133V3Z" />
<glyph unicode="G" glyph-name="G" horiz-adv-x="1469" d="M798 3Q586 3 412 103T134 371T30 744Q30 948 133 1116T411 1384T798 1484Q957 1484 1100 1425T1354 1255L1281 1182Q1184 1279 1060 1330T798 1381Q615 1381 464 1295T223 1064T133 744Q133 568 223
423T464 192T798 106L1266 107V692H699V795H1369V5L798 3Z" />
<glyph unicode="H" glyph-name="H" horiz-adv-x="1469" d="M1369 3H1266V695H133V3H30V1484H133V798H1266V1484H1369V3Z" />
<glyph unicode="I" glyph-name="I" horiz-adv-x="233" d="M133 3H30V1484H133V3Z" />
<glyph unicode="J" glyph-name="J" horiz-adv-x="1171" d="M542 -10Q419 -10 314 45T134 196T30 414H137Q180 272 290 183T542 93Q660 93 756 155T910 322T968 554V1474H1071V554Q1071 398 1000 271T808 67T542 -10Z" />
<glyph unicode="K" glyph-name="K" horiz-adv-x="1394" d="M30 -13V1474H133V267L1158 1474H1294L593 649L1279 -7H1130L526 570L30 -13Z" />
<glyph unicode="L" glyph-name="L" horiz-adv-x="1045" d="M945 -6H30V1474H133V97H945V-6Z" />
<glyph unicode="M" glyph-name="M" horiz-adv-x="1592" d="M1492 -7H1389V1135L737 164L134 1125V-2H30V1484L740 353L1492 1474V-7Z" />
<glyph unicode="N" glyph-name="N" horiz-adv-x="1469" d="M133 -7H30V1474L1266 245V1474H1369V-4L133 1226V-7Z" />
<glyph unicode="O" glyph-name="O" horiz-adv-x="1558" d="M744 -11Q547 -11 385 89T127 359T30 733Q30 938 126 1107T385 1377T744 1478Q941 1478 1103 1377T1361 1107T1458 733Q1458 528 1362 359T1103 90T744 -11ZM744 92Q912 92 1051 178T1272 410T1355 733Q1355
910 1273 1055T1051 1287T744 1374Q575 1374 437 1288T216 1056T133 733Q133 556 215 411T436 179T744 92Z" />
<glyph unicode="P" glyph-name="P" horiz-adv-x="1247" d="M133 -8H30V1474H694Q819 1474 922 1412T1086 1246T1147 1016Q1147 892 1087 790T925 625T695 558Q611 556 485 556Q323 556 133 558V-8ZM484 659Q610 659 692 661Q844 669 944 770T1044 1016Q1044 1114
997 1194T870 1323T694 1371H133V661Q321 659 484 659Z" />
<glyph unicode="Q" glyph-name="Q" horiz-adv-x="1558" d="M1238 -314L1000 53Q879 3 744 3Q547 3 385 103T127 373T30 748Q30 953 126 1122T385 1391T744 1492Q941 1492 1103 1392T1361 1122T1458 748Q1458 539 1359 368T1093 98L1324 -257L1238 -314ZM744 106Q848
106 942 141L701 512L788 568L1037 185Q1181 269 1268 417T1355 748Q1355 924 1273 1070T1052 1302T744 1389Q576 1389 437 1303T216 1070T133 748Q133 571 215 426T437 193T744 106Z" />
<glyph unicode="R" glyph-name="R" horiz-adv-x="1278" d="M1178 -7H1010L238 592V670H694Q790 670 869 717T996 843T1044 1020Q1044 1117 997 1196T870 1323T694 1370H133V-7H30V1474H694Q819 1474 922 1413T1086 1248T1147 1020Q1147 895 1086 792T922 628T694
566H439L1178 -7Z" />
<glyph unicode="S" glyph-name="S" horiz-adv-x="1110" d="M617 -7H421Q289 -7 186 73T44 284L30 333L130 361L143 311Q171 214 247 155T421 96H617Q736 96 820 182T904 390Q904 515 794 599T519 683Q377 683 267 734T93 875T30 1080Q30 1189 82 1279T224 1422T421
1476H617Q755 1476 862 1388T1000 1159L1010 1109L909 1088L898 1139Q876 1243 798 1308T617 1373H421Q302 1373 218 1287T133 1080Q133 952 242 869T519 786Q658 786 768 734T943 593T1008 390Q1008 280 955 190T813 47T617 -7Z" />
<glyph unicode="T" glyph-name="T" horiz-adv-x="1240" d="M636 -6H533V1371H30V1474H1140V1371H636V-6Z" />
<glyph unicode="U" glyph-name="U" horiz-adv-x="1258" d="M594 -6Q439 -6 311 72T107 283T30 576V1475H134V576Q134 444 196 336T362 162T594 97Q721 97 826 162T993 335T1055 576V1475H1158V576Q1158 415 1082 283T878 73T594 -6Z" />
<glyph unicode="V" glyph-name="V" horiz-adv-x="1437" d="M684 -10L30 1475H143L684 246L1224 1475H1337L684 -10Z" />
<glyph unicode="W" glyph-name="W" horiz-adv-x="1833" d="M1294 17L881 1152L470 17L30 1475H138L479 345L880 1454L1285 344L1626 1475H1733L1294 17Z" />
<glyph unicode="X" glyph-name="X" horiz-adv-x="1331" d="M1231 -6H1104L630 649L157 -6H30L567 737L33 1475H161L630 825L1100 1475H1228L694 737L1231 -6Z" />
<glyph unicode="Y" glyph-name="Y" horiz-adv-x="1499" d="M766 -6H663V700L30 1475H163L715 800L1266 1475H1399L766 700V-6Z" />
<glyph unicode="Z" glyph-name="Z" horiz-adv-x="1186" d="M1044 -4H30L898 1369H72V1472H1086L218 100H1044V-4Z" />
<glyph unicode="[" glyph-name="bracketleft" horiz-adv-x="464" d="M323 -66H71Q54 -66 42 -54T30 -25V1518Q30 1535 42 1547T71 1559H323Q340 1559 352 1547T364 1518Q364 1501 352 1489T323 1476H112V16H323Q340 16 352 4T364 -25Q364 -42 352 -54T323 -66Z" />
<glyph unicode="\" glyph-name="backslash" horiz-adv-x="723" d="M582 -77Q557 -77 544 -47L32 1534Q30 1542 30 1549Q30 1579 57 1594Q64 1597 71 1597Q96 1597 109 1566L620 -15Q623 -23 623 -31Q623 -59 596 -74Q590 -77 582 -77Z" />
<glyph unicode="]" glyph-name="bracketright" horiz-adv-x="464" d="M323 -66H70Q54 -66 42 -54T30 -25Q30 -8 42 4T70 16H282V1476H70Q54 1476 42 1488T30 1518Q30 1535 42 1547T70 1559H323Q340 1559 352 1547T364 1518V-25Q364 -42 352 -54T323 -66Z" />
<glyph unicode="^" glyph-name="asciicircum" horiz-adv-x="724" d="M584 1263Q562 1263 548 1285L324 1724L107 1285Q94 1263 71 1263Q61 1263 52 1267Q30 1281 30 1303Q30 1312 34 1321L287 1833Q298 1854 323 1856Q346 1856 359 1833L620 1322Q624 1313 624
1304Q624 1281 602 1267Q593 1263 584 1263Z" />
<glyph unicode="_" glyph-name="underscore" horiz-adv-x="1062" d="M928 -70H64Q50 -70 40 -60T30 -35Q30 -21 40 -11T64 -1H928Q942 -1 952 -11T962 -35Q962 -50 952 -60T928 -70Z" />
<glyph unicode="`" glyph-name="grave" horiz-adv-x="1024" />
<glyph unicode="a" glyph-name="a" horiz-adv-x="1106" d="M1006 3H903V197Q835 108 735 56T518 3Q384 3 273 71T96 253T30 506Q30 645 96 759T273 941T518 1009Q635 1009 735 957T903 815V1009H1006V3ZM518 106Q624 106 711 160T851 305T903 506Q903 616 851
707T712 852T518 906Q412 906 325 852T185 707T133 506Q133 396 185 305T324 160T518 106Z" />
<glyph unicode="b" glyph-name="b" horiz-adv-x="1105" d="M517 3Q400 3 301 55T133 197V3H30V1484H133V815Q201 905 300 957T517 1009Q652 1009 762 941T939 759T1005 506Q1005 367 939 253T763 71T517 3ZM517 106Q623 106 710 160T850 305T902 506Q902 616 850
707T711 852T517 906Q411 906 324 852T185 707T133 506Q133 396 185 305T324 160T517 106Z" />
<glyph unicode="c" glyph-name="c" horiz-adv-x="1028" d="M518 3Q384 3 273 71T96 253T30 506Q30 645 96 759T273 941T518 1009Q640 1009 746 951T923 787L837 730Q782 813 698 859T518 906Q412 906 325 852T186 707T134 506Q134 396 186 305T325 160T518 106Q616
106 700 154T840 287L928 232Q858 124 751 64T518 3Z" />
<glyph unicode="d" glyph-name="d" horiz-adv-x="1106" d="M1006 3H903V197Q835 108 735 56T518 3Q384 3 273 71T96 253T30 506Q30 645 96 759T273 941T518 1009Q635 1009 735 957T903 815V1484H1006V3ZM518 106Q624 106 711 160T851 305T903 506Q903 616 851
707T712 852T518 906Q412 906 325 852T186 707T134 506Q134 396 186 305T325 160T518 106Z" />
<glyph unicode="e" glyph-name="e" horiz-adv-x="1052" d="M518 3Q383 3 273 71T96 253T30 506Q30 645 96 759T272 941T518 1009Q640 1009 746 951T923 787L952 741L192 294Q244 208 329 157T518 106Q615 106 700 154T840 287L927 232Q858 124 750 64T518 3ZM150
389L804 774Q683 906 518 906Q412 906 325 852T185 707T133 506Q133 445 150 389Z" />
<glyph unicode="f" glyph-name="f" horiz-adv-x="696" d="M217 4H114V711H30V815H114V1021Q114 1149 172 1254T328 1421T545 1483H596V1380H545Q455 1380 381 1332T262 1202T217 1021V815H472V711H217V4Z" />
<glyph unicode="g" glyph-name="g" horiz-adv-x="1106" d="M575 -471H523V-367H575Q665 -367 739 -319T858 -189T902 -9V197Q834 108 735 56T518 3Q383 3 273 71T96 253T30 506Q30 645 96 759T272 941T518 1009Q635 1009 734 957T902 815V1009H1006V-9Q1006 -136
948 -241T792 -408T575 -471ZM518 106Q624 106 711 160T850 305T902 506Q902 616 851 707T712 852T518 906Q412 906 325 852T185 707T133 506Q133 396 185 305T324 160T518 106Z" />
<glyph unicode="h" glyph-name="h" horiz-adv-x="1106" d="M1006 4H903V522Q903 628 851 715T712 854T518 906Q412 906 325 855T185 716T133 522V5H30V1486H133V821Q202 908 301 959T518 1010Q653 1010 763 944T940 767T1006 522V4Z" />
<glyph unicode="i" glyph-name="i" horiz-adv-x="265" d="M143 3H40V1009H143V3ZM80 1158Q48 1158 26 1182T3 1242Q3 1276 25 1301T80 1326Q113 1326 135 1301T158 1242Q158 1207 136 1183T80 1158Z" />
<glyph unicode="j" glyph-name="j" horiz-adv-x="625" d="M81 -471H30V-367H81Q172 -367 246 -319T364 -189T409 -9V1009H512V-9Q512 -136 454 -241T298 -408T81 -471ZM450 1158Q418 1158 396 1182T373 1242Q373 1276 395 1301T450 1326Q483 1326 505 1301T528
1242Q528 1207 506 1183T450 1158Z" />
<glyph unicode="k" glyph-name="k" horiz-adv-x="1137" d="M1037 3H874L397 394L30 6V1586H133V265L836 1009H978L468 469L1037 3Z" />
<glyph unicode="l" glyph-name="l" horiz-adv-x="233" d="M133 3H30V1461H133V3Z" />
<glyph unicode="m" glyph-name="m" horiz-adv-x="1754" d="M1654 3H1551V521Q1551 627 1507 714T1388 854T1222 906Q1132 906 1057 854T938 715T894 521V3H790V521Q790 627 746 714T627 854T462 906Q371 906 297 854T178 715T133 521V4H30V1032H133V837Q193 917
278 963T462 1009Q585 1009 685 939T842 752Q898 869 998 939T1222 1009Q1341 1009 1439 943T1595 767T1654 521V3Z" />
<glyph unicode="n" glyph-name="n" horiz-adv-x="994" d="M894 3H791V521Q791 627 747 714T628 854T462 906Q372 906 297 854T178 715T134 521V4H30V1032H134V837Q194 917 279 963T462 1009Q581 1009 679 943T835 767T894 521V3Z" />
<glyph unicode="o" glyph-name="o" horiz-adv-x="1106" d="M518 3Q383 3 273 71T96 253T30 506Q30 645 96 759T272 941T518 1009Q652 1009 763 941T940 759T1006 506Q1006 367 940 253T763 71T518 3ZM518 106Q624 106 711 160T850 305T902 506Q902 616 850 707T711
852T518 906Q412 906 325 852T185 707T133 506Q133 396 185 305T324 160T518 106Z" />
<glyph unicode="p" glyph-name="p" horiz-adv-x="1106" d="M134 -472H30V1009H134V815Q202 905 301 957T518 1009Q653 1009 763 941T940 759T1006 506Q1006 367 940 253T764 71T518 3Q401 3 302 55T134 197V-472ZM518 106Q624 106 711 160T851 305T903 506Q903
616 851 707T712 852T518 906Q412 906 325 852T186 707T134 506Q134 396 186 305T325 160T518 106Z" />
<glyph unicode="q" glyph-name="q" horiz-adv-x="1106" d="M1006 -472H903V197Q835 108 735 56T518 3Q384 3 273 71T96 253T30 506Q30 645 96 759T273 941T518 1009Q635 1009 735 957T903 815V1009H1006V-472ZM518 106Q624 106 711 160T851 305T903 506Q903 616
851 707T712 852T518 906Q412 906 325 852T186 707T134 506Q134 396 186 305T325 160T518 106Z" />
<glyph unicode="r" glyph-name="r" horiz-adv-x="722" d="M133 3H30V1009H133V842Q189 919 266 964T434 1009Q534 1009 622 951L547 876Q492 906 434 906Q351 906 283 852T174 707T133 506V3Z" />
<glyph unicode="s" glyph-name="s" horiz-adv-x="822" d="M440 5H311Q218 5 145 60T44 207L30 257L130 284L144 235Q160 178 206 143T311 108H440Q512 108 563 158T614 281Q614 355 546 404T376 454Q227 454 131 532T34 731Q34 845 115 926T311 1008H440Q539 1008
614 946T711 787L722 736L621 715L610 766Q597 827 550 865T440 904H311Q239 904 188 854T137 731Q137 656 204 607T376 558Q522 558 619 479T717 281Q717 167 636 86T440 5Z" />
<glyph unicode="t" glyph-name="t" horiz-adv-x="645" d="M545 3Q426 3 328 65T172 232T114 465V671H30V774H114V1382H217V774H472V671H217V465Q217 366 261 285T380 155T545 106V3Z" />
<glyph unicode="u" glyph-name="u" horiz-adv-x="980" d="M455 7Q338 7 242 61T88 205T30 406V1013H133V406Q133 284 227 197T455 110Q588 110 682 197T777 406V1013H880V406Q880 296 823 206T669 61T455 7Z" />
<glyph unicode="v" glyph-name="v" horiz-adv-x="1044" d="M487 -8L30 1013H143L487 244L831 1013H944L487 -8Z" />
<glyph unicode="w" glyph-name="w" horiz-adv-x="1515" d="M1043 3Q941 3 857 57T722 201Q672 112 588 59T402 6Q300 6 216 60T81 204T30 405V1012H134V405Q134 283 212 196T402 109Q514 109 592 196T671 405V1012H774V402Q774 280 853 193T1043 106Q1155 106
1233 193T1312 402V1009H1415V402Q1415 292 1365 202T1231 57T1043 3Z" />
<glyph unicode="x" glyph-name="x" horiz-adv-x="1014" d="M907 3H773L472 410L171 3H38L405 501L30 1009H164L472 591L781 1009H914L539 501L907 3Z" />
<glyph unicode="y" glyph-name="y" horiz-adv-x="1157" d="M287 -458H170L462 106L30 1009H145L523 220L939 1009H1057L532 16L287 -458Z" />
<glyph unicode="z" glyph-name="z" horiz-adv-x="895" d="M753 -1H30L607 902H72V1005H795L218 103H753V-1Z" />
<glyph unicode="{" glyph-name="braceleft" horiz-adv-x="602" d="M407 -83Q262 -83 190 -24Q145 18 145 78L151 134Q166 279 166 411Q166 544 147 618Q136 651 117 663T82 676H71Q56 676 45 686T30 713V721Q33 737 44 747T72 758H82Q97 758 116 770T147 816Q166
891 166 1023Q166 1155 151 1300L145 1351Q145 1416 190 1458Q262 1518 406 1518Q452 1518 467 1516T492 1501T502 1474Q501 1456 490 1445T462 1434Q427 1436 411 1436Q292 1436 245 1397Q227 1382 227 1358L228 1350Q248 1190 248 1028Q248 964 243 904T224 794T179
717Q210 690 225 639Q248 554 248 407Q248 244 228 84L227 76Q227 52 245 37Q293 -2 411 -2Q427 -2 463 0Q478 0 489 -10T502 -40Q502 -55 492 -66T466 -81H456Q438 -83 407 -83Z" />
<glyph unicode="|" glyph-name="bar" horiz-adv-x="211" d="M70 -85Q53 -85 42 -73T30 -44V1478Q30 1495 41 1507T70 1519Q87 1519 99 1507T111 1478V-44Q111 -61 99 -73T70 -85Z" />
<glyph unicode="}" glyph-name="braceright" horiz-adv-x="601" d="M125 -6Q94 -6 76 -4H66Q50 -2 40 9T30 36Q31 57 43 67T70 78H74Q93 75 124 75Q240 75 287 114Q305 129 305 153Q302 175 293 272T284 485Q284 631 306 717Q322 768 353 794Q321 822 308 871T289
980T284 1104Q284 1219 293 1316T305 1435Q305 1461 287 1474Q239 1513 120 1513L70 1511Q55 1511 43 1521T30 1553Q30 1568 40 1579T64 1592T125 1595Q269 1595 342 1535Q387 1493 387 1433L385 1421Q365 1265 365 1101Q365 878 415 848Q435 836 450 835H462Q477
835 488 825T501 798Q501 776 489 765T462 754H450Q435 753 415 741Q365 709 365 487Q365 319 385 166L387 158Q387 95 342 54Q269 -6 125 -6Z" />
<glyph unicode="~" glyph-name="asciitilde" horiz-adv-x="810" d="M456 595Q414 595 378 617T307 666L296 674Q231 726 201 726H194Q186 726 167 711T119 650Q104 628 77 628Q69 628 60 631Q30 643 30 665Q30 672 34 680Q103 799 202 799Q250 799 291 775T369
721L370 720Q434 668 456 668Q497 668 529 688T584 734T620 783Q636 804 663 804Q670 804 678 802Q710 790 710 768Q710 747 655 687Q572 595 456 595Z" />
</font>
</defs>
</svg>
